<?xml version="1.0" standalone="no"?>
<!DOCTYPE svg PUBLIC "-//W3C//DTD SVG 20010904//EN"
 "http://www.w3.org/TR/2001/REC-SVG-20010904/DTD/svg10.dtd">
<svg version="1.0" xmlns="http://www.w3.org/2000/svg"
 width="220.000000pt" height="220.000000pt" viewBox="0 0 220.000000 220.000000"
 preserveAspectRatio="xMidYMid meet">
<metadata>
Created by potrace 1.14, written by Peter Selinger 2001-2017
</metadata>
<g transform="translate(0.000000,220.000000) scale(0.100000,-0.100000)"
fill="#000000" stroke="none">
<path d="M1983 1700 c-100 -23 -250 -210 -373 -461 -44 -90 -50 -98 -64 -83
-9 8 -17 21 -18 27 0 7 -2 17 -3 22 -2 6 -3 18 -4 28 -1 16 -3 16 -25 2 -37
-24 -39 -53 -9 -115 16 -32 27 -70 26 -90 -1 -22 -30 -91 -78 -183 -84 -164
-105 -239 -68 -251 27 -9 48 1 61 27 19 38 52 116 52 122 0 3 9 24 20 48 10
23 33 77 50 120 43 109 54 124 103 133 23 4 44 8 47 9 82 17 203 88 279 164
103 103 153 221 147 346 -3 71 -25 112 -73 131 -18 8 -34 14 -35 13 -2 -1 -18
-5 -35 -9z m61 -105 c9 -37 -11 -148 -39 -212 -61 -137 -205 -253 -316 -253
-26 0 -27 2 -23 38 13 111 109 287 211 388 54 53 73 62 124 63 31 1 38 -3 43
-24z"/>
<path d="M1433 1448 c-4 -6 -62 -117 -128 -247 l-120 -236 -45 -7 c-25 -4 -76
-14 -115 -23 -125 -28 -117 -28 -105 -8 45 80 194 424 193 447 -1 39 -25 61
-51 47 -11 -6 -26 -17 -34 -23 -7 -7 -36 -29 -63 -47 -28 -19 -52 -37 -55 -41
-3 -3 -46 -37 -97 -77 -124 -97 -143 -114 -143 -130 0 -7 2 -13 5 -13 14 0 70
31 142 77 74 48 143 76 143 58 0 -4 -25 -57 -55 -119 -171 -352 -375 -520
-630 -520 -125 0 -165 32 -152 125 6 43 -1 47 -37 23 -71 -46 -23 -172 78
-204 40 -13 174 -16 229 -5 96 19 195 69 262 132 133 125 210 173 302 189 76
13 131 23 156 29 25 7 27 5 27 -24 0 -42 -35 -132 -75 -191 -18 -27 -30 -51
-27 -54 3 -3 20 -6 38 -6 39 0 42 5 113 165 30 66 69 154 88 195 19 41 55 120
80 175 25 55 56 124 69 153 13 29 28 71 33 93 13 59 -3 101 -26 67z"/>
</g>
</svg>
